<svg xmlns="http://www.w3.org/2000/svg" width="1086" height="56.791" viewBox="0 0 1086 56.791">
  <g id="Group_109" data-name="Group 109" transform="translate(-97 -556)">
    <g id="Path_49" data-name="Path 49" transform="translate(1183 612.791) rotate(180)" fill="#90acc0">
      <path d="M 130.3686981201172 56.29050064086914 L 9.889253616333008 56.29050064086914 C 4.712003231048584 56.29050064086914 0.5000033378601074 52.40575408935547 0.5000033378601074 47.63075256347656 L 0.5000033378601074 9.159751892089844 C 0.5000033378601074 4.38475227355957 4.712003231048584 0.5000022053718567 9.889253616333008 0.5000022053718567 L 130.36083984375 0.5000022053718567 L 165.7593688964844 29.19977188110352 L 130.3686981201172 56.29050064086914 Z" stroke="none"/>
      <path dd="M 9.889266967773438 0.9999923706054688 C 4.987701416015625 0.9999923706054688 1 4.660446166992188 1 9.159751892089844 L 1 47.63075256347656 C 1 52.13005828857422 4.987701416015625 55.79051208496094 9.889266967773438 55.79051208496094 L 130.1992797851562 55.79051208496094 L 164.9515228271484 29.18849563598633 L 130.1836242675781 0.9999923706054688 L 9.889266967773438 0.9999923706054688 M 9.889266967773438 -7.62939453125e-06 L 130.5380859375 -7.62939453125e-06 L 166.5672149658203 29.21105575561523 L 130.5380859375 56.79051208496094 L 9.889266967773438 56.79051208496094 C 4.427566528320312 56.79051208496094 0 52.68953323364258 0 47.63075256347656 L 0 9.159751892089844 C 0 4.100971221923828 4.427566528320312 -7.62939453125e-06 9.889266967773438 -7.62939453125e-06 Z" stroke="none" fill="#fff"/>
    </g>
    <g id="Path_61" data-name="Path 61" transform="translate(967.048 556)" fill="#90acc0">
      <path d="M 108.7588958740234 56.29050827026367 L 8.254049301147461 56.29050827026367 C 3.978448867797852 56.29050827026367 0.4999943375587463 52.40576171875 0.4999943375587463 47.63074493408203 L 0.4999943375587463 9.159761428833008 C 0.4999943375587463 4.384743213653564 3.978448867797852 0.4999976754188538 8.254049301147461 0.4999976754188538 L 108.7505798339844 0.4999976754188538 L 138.2967681884766 29.20061111450195 L 108.7588958740234 56.29050827026367 Z" stroke="none"/>
      <path d="M 8.254043579101562 0.9999961853027344 C 4.254150390625 0.9999961853027344 1 4.660453796386719 1 9.159759521484375 L 1 47.63074493408203 C 1 52.13005065917969 4.254150390625 55.79050827026367 8.254043579101562 55.79050827026367 L 108.564323425293 55.79050827026367 L 137.5684204101562 29.19015312194824 L 108.547721862793 0.9999961853027344 L 8.254043579101562 0.9999961853027344 M 8.254043579101562 -3.814697265625e-06 L 108.9534454345703 -3.814697265625e-06 L 139.0251159667969 29.21105194091797 L 108.9534454345703 56.79050827026367 L 8.254043579101562 56.79050827026367 C 3.695465087890625 56.79050827026367 0 52.68954467773438 0 47.63074493408203 L 0 9.159759521484375 C 0 4.100959777832031 3.695465087890625 -3.814697265625e-06 8.254043579101562 -3.814697265625e-06 Z" stroke="none" fill="#fff"/>
    </g>
    <g id="Path_60" data-name="Path 60" transform="translate(866.377 556)" fill="#90acc0">
      <path d="M 108.7588958740234 56.29050827026367 L 8.254049301147461 56.29050827026367 C 3.978448867797852 56.29050827026367 0.4999943375587463 52.40576171875 0.4999943375587463 47.63074493408203 L 0.4999943375587463 9.159761428833008 C 0.4999943375587463 4.384743213653564 3.978448867797852 0.4999976754188538 8.254049301147461 0.4999976754188538 L 108.7505798339844 0.4999976754188538 L 138.2967681884766 29.20061111450195 L 108.7588958740234 56.29050827026367 Z" stroke="none"/>
      <path d="M 8.254043579101562 0.9999961853027344 C 4.254150390625 0.9999961853027344 1 4.660453796386719 1 9.159759521484375 L 1 47.63074493408203 C 1 52.13005065917969 4.254150390625 55.79050827026367 8.254043579101562 55.79050827026367 L 108.564323425293 55.79050827026367 L 137.5684204101562 29.19015312194824 L 108.547721862793 0.9999961853027344 L 8.254043579101562 0.9999961853027344 M 8.254043579101562 -3.814697265625e-06 L 108.9534454345703 -3.814697265625e-06 L 139.0251159667969 29.21105194091797 L 108.9534454345703 56.79050827026367 L 8.254043579101562 56.79050827026367 C 3.695465087890625 56.79050827026367 0 52.68954467773438 0 47.63074493408203 L 0 9.159759521484375 C 0 4.100959777832031 3.695465087890625 -3.814697265625e-06 8.254043579101562 -3.814697265625e-06 Z" stroke="none" fill="#fff"/>
    </g>
    <g id="Path_50" data-name="Path 50" transform="translate(774.254 556)" fill="#90acc0">
      <path d="M 108.7588958740234 56.29050827026367 L 8.254049301147461 56.29050827026367 C 3.978448867797852 56.29050827026367 0.4999943375587463 52.40576171875 0.4999943375587463 47.63074493408203 L 0.4999943375587463 9.159761428833008 C 0.4999943375587463 4.384743213653564 3.978448867797852 0.4999976754188538 8.254049301147461 0.4999976754188538 L 108.7505798339844 0.4999976754188538 L 138.2967681884766 29.20061111450195 L 108.7588958740234 56.29050827026367 Z" stroke="none"/>
      <path d="M 8.254043579101562 0.9999961853027344 C 4.254150390625 0.9999961853027344 1 4.660453796386719 1 9.159759521484375 L 1 47.63074493408203 C 1 52.13005065917969 4.254150390625 55.79050827026367 8.254043579101562 55.79050827026367 L 108.564323425293 55.79050827026367 L 137.5684204101562 29.19015312194824 L 108.547721862793 0.9999961853027344 L 8.254043579101562 0.9999961853027344 M 8.254043579101562 -3.814697265625e-06 L 108.9534454345703 -3.814697265625e-06 L 139.0251159667969 29.21105194091797 L 108.9534454345703 56.79050827026367 L 8.254043579101562 56.79050827026367 C 3.695465087890625 56.79050827026367 0 52.68954467773438 0 47.63074493408203 L 0 9.159759521484375 C 0 4.100959777832031 3.695465087890625 -3.814697265625e-06 8.254043579101562 -3.814697265625e-06 Z" stroke="none" fill="#fff"/>
    </g>
    <g id="Path_51" data-name="Path 51" transform="translate(676.433 556)" fill="#90acc0">
      <path d="M 108.7588958740234 56.29050827026367 L 8.254049301147461 56.29050827026367 C 3.978448867797852 56.29050827026367 0.4999943375587463 52.40576171875 0.4999943375587463 47.63074493408203 L 0.4999943375587463 9.159761428833008 C 0.4999943375587463 4.384743213653564 3.978448867797852 0.4999976754188538 8.254049301147461 0.4999976754188538 L 108.7505798339844 0.4999976754188538 L 138.2967681884766 29.20061111450195 L 108.7588958740234 56.29050827026367 Z" stroke="none"/>
      <path d="M 8.254043579101562 0.9999961853027344 C 4.254150390625 0.9999961853027344 1 4.660453796386719 1 9.159759521484375 L 1 47.63074493408203 C 1 52.13005065917969 4.254150390625 55.79050827026367 8.254043579101562 55.79050827026367 L 108.564323425293 55.79050827026367 L 137.5684204101562 29.19015312194824 L 108.547721862793 0.9999961853027344 L 8.254043579101562 0.9999961853027344 M 8.254043579101562 -3.814697265625e-06 L 108.9534454345703 -3.814697265625e-06 L 139.0251159667969 29.21105194091797 L 108.9534454345703 56.79050827026367 L 8.254043579101562 56.79050827026367 C 3.695465087890625 56.79050827026367 0 52.68954467773438 0 47.63074493408203 L 0 9.159759521484375 C 0 4.100959777832031 3.695465087890625 -3.814697265625e-06 8.254043579101562 -3.814697265625e-06 Z" stroke="none" fill="#fff"/>
    </g>
    <g id="Path_52" data-name="Path 52" transform="translate(585.028 556)" fill="#90acc0">
      <path d="M 108.7588958740234 56.29050827026367 L 8.254049301147461 56.29050827026367 C 3.978448867797852 56.29050827026367 0.4999943375587463 52.40576171875 0.4999943375587463 47.63074493408203 L 0.4999943375587463 9.159761428833008 C 0.4999943375587463 4.384743213653564 3.978448867797852 0.4999976754188538 8.254049301147461 0.4999976754188538 L 108.7505798339844 0.4999976754188538 L 138.2967681884766 29.20061111450195 L 108.7588958740234 56.29050827026367 Z" stroke="none"/>
      <path d="M 8.254043579101562 0.9999961853027344 C 4.254150390625 0.9999961853027344 1 4.660453796386719 1 9.159759521484375 L 1 47.63074493408203 C 1 52.13005065917969 4.254150390625 55.79050827026367 8.254043579101562 55.79050827026367 L 108.564323425293 55.79050827026367 L 137.5684204101562 29.19015312194824 L 108.547721862793 0.9999961853027344 L 8.254043579101562 0.9999961853027344 M 8.254043579101562 -3.814697265625e-06 L 108.9534454345703 -3.814697265625e-06 L 139.0251159667969 29.21105194091797 L 108.9534454345703 56.79050827026367 L 8.254043579101562 56.79050827026367 C 3.695465087890625 56.79050827026367 0 52.68954467773438 0 47.63074493408203 L 0 9.159759521484375 C 0 4.100959777832031 3.695465087890625 -3.814697265625e-06 8.254043579101562 -3.814697265625e-06 Z" stroke="none" fill="#fff"/>
    </g>
    <g id="Path_53" data-name="Path 53" transform="translate(482.69 556)" fill="#90acc0">
      <path d="M 108.7588958740234 56.29050827026367 L 8.254049301147461 56.29050827026367 C 3.978448867797852 56.29050827026367 0.4999943375587463 52.40576171875 0.4999943375587463 47.63074493408203 L 0.4999943375587463 9.159761428833008 C 0.4999943375587463 4.384743213653564 3.978448867797852 0.4999976754188538 8.254049301147461 0.4999976754188538 L 108.7505798339844 0.4999976754188538 L 138.2967681884766 29.20061111450195 L 108.7588958740234 56.29050827026367 Z" stroke="none"/>
      <path d="M 8.254043579101562 0.9999961853027344 C 4.254150390625 0.9999961853027344 1 4.660453796386719 1 9.159759521484375 L 1 47.63074493408203 C 1 52.13005065917969 4.254150390625 55.79050827026367 8.254043579101562 55.79050827026367 L 108.564323425293 55.79050827026367 L 137.5684204101562 29.19015312194824 L 108.547721862793 0.9999961853027344 L 8.254043579101562 0.9999961853027344 M 8.254043579101562 -3.814697265625e-06 L 108.9534454345703 -3.814697265625e-06 L 139.0251159667969 29.21105194091797 L 108.9534454345703 56.79050827026367 L 8.254043579101562 56.79050827026367 C 3.695465087890625 56.79050827026367 0 52.68954467773438 0 47.63074493408203 L 0 9.159759521484375 C 0 4.100959777832031 3.695465087890625 -3.814697265625e-06 8.254043579101562 -3.814697265625e-06 Z" stroke="none" fill="#fff"/>
    </g>
    <g id="Path_48" data-name="Path 48" transform="translate(384.869 556)" fill="#3b6e8f">
      <path d="M 108.7588958740234 56.29050827026367 L 8.254049301147461 56.29050827026367 C 3.978448867797852 56.29050827026367 0.4999943375587463 52.40576171875 0.4999943375587463 47.63074493408203 L 0.4999943375587463 9.159761428833008 C 0.4999943375587463 4.384743213653564 3.978448867797852 0.4999976754188538 8.254049301147461 0.4999976754188538 L 108.7505798339844 0.4999976754188538 L 138.2967681884766 29.20061111450195 L 108.7588958740234 56.29050827026367 Z" stroke="none"/>
      <path d="M 8.254043579101562 0.9999961853027344 C 4.254150390625 0.9999961853027344 1 4.660453796386719 1 9.159759521484375 L 1 47.63074493408203 C 1 52.13005065917969 4.254150390625 55.79050827026367 8.254043579101562 55.79050827026367 L 108.564323425293 55.79050827026367 L 137.5684204101562 29.19015312194824 L 108.547721862793 0.9999961853027344 L 8.254043579101562 0.9999961853027344 M 8.254043579101562 -3.814697265625e-06 L 108.9534454345703 -3.814697265625e-06 L 139.0251159667969 29.21105194091797 L 108.9534454345703 56.79050827026367 L 8.254043579101562 56.79050827026367 C 3.695465087890625 56.79050827026367 0 52.68954467773438 0 47.63074493408203 L 0 9.159759521484375 C 0 4.100959777832031 3.695465087890625 -3.814697265625e-06 8.254043579101562 -3.814697265625e-06 Z" stroke="none" fill="#fff"/>
    </g>
    <g id="Path_46" data-name="Path 46" transform="translate(291.692 556)" fill="#3b6e8f">
      <path d="M 108.7588958740234 56.29050827026367 L 8.254049301147461 56.29050827026367 C 3.978448867797852 56.29050827026367 0.4999943375587463 52.40576171875 0.4999943375587463 47.63074493408203 L 0.4999943375587463 9.159761428833008 C 0.4999943375587463 4.384743213653564 3.978448867797852 0.4999976754188538 8.254049301147461 0.4999976754188538 L 108.7505798339844 0.4999976754188538 L 138.2967681884766 29.20061111450195 L 108.7588958740234 56.29050827026367 Z" stroke="none"/>
      <path d="M 8.254043579101562 0.9999961853027344 C 4.254150390625 0.9999961853027344 1 4.660453796386719 1 9.159759521484375 L 1 47.63074493408203 C 1 52.13005065917969 4.254150390625 55.79050827026367 8.254043579101562 55.79050827026367 L 108.564323425293 55.79050827026367 L 137.5684204101562 29.19015312194824 L 108.547721862793 0.9999961853027344 L 8.254043579101562 0.9999961853027344 M 8.254043579101562 -3.814697265625e-06 L 108.9534454345703 -3.814697265625e-06 L 139.0251159667969 29.21105194091797 L 108.9534454345703 56.79050827026367 L 8.254043579101562 56.79050827026367 C 3.695465087890625 56.79050827026367 0 52.68954467773438 0 47.63074493408203 L 0 9.159759521484375 C 0 4.100959777832031 3.695465087890625 -3.814697265625e-06 8.254043579101562 -3.814697265625e-06 Z" stroke="none" fill="#fff"/>
    </g>
    <g id="Path_45" data-name="Path 45" transform="translate(193.871 556)" fill="#3b6e8f">
      <path d="M 108.7588958740234 56.29050827026367 L 8.254049301147461 56.29050827026367 C 3.978448867797852 56.29050827026367 0.4999943375587463 52.40576171875 0.4999943375587463 47.63074493408203 L 0.4999943375587463 9.159761428833008 C 0.4999943375587463 4.384743213653564 3.978448867797852 0.4999976754188538 8.254049301147461 0.4999976754188538 L 108.7505798339844 0.4999976754188538 L 138.2967681884766 29.20061111450195 L 108.7588958740234 56.29050827026367 Z" stroke="none"/>
      <path d="M 8.254043579101562 0.9999961853027344 C 4.254150390625 0.9999961853027344 1 4.660453796386719 1 9.159759521484375 L 1 47.63074493408203 C 1 52.13005065917969 4.254150390625 55.79050827026367 8.254043579101562 55.79050827026367 L 108.564323425293 55.79050827026367 L 137.5684204101562 29.19015312194824 L 108.547721862793 0.9999961853027344 L 8.254043579101562 0.9999961853027344 M 8.254043579101562 -3.814697265625e-06 L 108.9534454345703 -3.814697265625e-06 L 139.0251159667969 29.21105194091797 L 108.9534454345703 56.79050827026367 L 8.254043579101562 56.79050827026367 C 3.695465087890625 56.79050827026367 0 52.68954467773438 0 47.63074493408203 L 0 9.159759521484375 C 0 4.100959777832031 3.695465087890625 -3.814697265625e-06 8.254043579101562 -3.814697265625e-06 Z" stroke="none" fill="#fff"/>
    </g>
    <g id="Path_44" data-name="Path 44" transform="translate(97 556)" fill="#3b6e8f">
      <path d="M 108.7588958740234 56.29050827026367 L 8.254049301147461 56.29050827026367 C 3.978448867797852 56.29050827026367 0.4999943375587463 52.40576171875 0.4999943375587463 47.63074493408203 L 0.4999943375587463 9.159761428833008 C 0.4999943375587463 4.384743213653564 3.978448867797852 0.4999976754188538 8.254049301147461 0.4999976754188538 L 108.7505798339844 0.4999976754188538 L 138.2967681884766 29.20061111450195 L 108.7588958740234 56.29050827026367 Z" stroke="none"/>
      <path d="M 8.254043579101562 0.9999961853027344 C 4.254150390625 0.9999961853027344 1 4.660453796386719 1 9.159759521484375 L 1 47.63074493408203 C 1 52.13005065917969 4.254150390625 55.79050827026367 8.254043579101562 55.79050827026367 L 108.564323425293 55.79050827026367 L 137.5684204101562 29.19015312194824 L 108.547721862793 0.9999961853027344 L 8.254043579101562 0.9999961853027344 M 8.254043579101562 -3.814697265625e-06 L 108.9534454345703 -3.814697265625e-06 L 139.0251159667969 29.21105194091797 L 108.9534454345703 56.79050827026367 L 8.254043579101562 56.79050827026367 C 3.695465087890625 56.79050827026367 0 52.68954467773438 0 47.63074493408203 L 0 9.159759521484375 C 0 4.100959777832031 3.695465087890625 -3.814697265625e-06 8.254043579101562 -3.814697265625e-06 Z" stroke="none" fill="#fff"/>
    </g>
    <text id="_1" data-name="1" transform="translate(148 578)" fill="#f7f7f7" font-size="13" font-family="LucidaGrande-Bold, Lucida Grande" font-weight="700"><tspan x="0" y="0">1</tspan></text>
    <text id="_2" data-name="2" transform="translate(269 578)" fill="#f7f7f7" font-size="13" font-family="LucidaGrande-Bold, Lucida Grande" font-weight="700"><tspan x="0" y="0">2</tspan></text>
    <text id="_3" data-name="3" transform="translate(362 578)" fill="#f7f7f7" font-size="13" font-family="LucidaGrande-Bold, Lucida Grande" font-weight="700"><tspan x="0" y="0">3</tspan></text>
    <text id="_4" data-name="4" transform="translate(454 578)" fill="#f7f7f7" font-size="13" font-family="LucidaGrande-Bold, Lucida Grande" font-weight="700"><tspan x="0" y="0">4</tspan></text>
    <text id="_5" data-name="5" transform="translate(552 578)" fill="#f7f7f7" font-size="13" font-family="LucidaGrande-Bold, Lucida Grande" font-weight="700"><tspan x="0" y="0">5</tspan></text>
    <text id="_11" data-name="11" transform="translate(1129 578)" fill="#f7f7f7" font-size="13" font-family="LucidaGrande-Bold, Lucida Grande" font-weight="700"><tspan x="0" y="0">11</tspan></text>
    <text id="_10" data-name="10" transform="translate(1035 578)" fill="#f7f7f7" font-size="13" font-family="LucidaGrande-Bold, Lucida Grande" font-weight="700"><tspan x="0" y="0">10</tspan></text>
    <text id="_6" data-name="6" transform="translate(651 578)" fill="#f7f7f7" font-size="13" font-family="LucidaGrande-Bold, Lucida Grande" font-weight="700"><tspan x="0" y="0">6</tspan></text>
    <text id="_9" data-name="9" transform="translate(933 578)" fill="#f7f7f7" font-size="13" font-family="LucidaGrande-Bold, Lucida Grande" font-weight="700"><tspan x="0" y="0">9</tspan></text>
    <text id="_7" data-name="7" transform="translate(750 578)" fill="#f7f7f7" font-size="13" font-family="LucidaGrande-Bold, Lucida Grande" font-weight="700"><tspan x="0" y="0">7</tspan></text>
    <text id="_8" data-name="8" transform="translate(844 578)" fill="#f7f7f7" font-size="13" font-family="LucidaGrande-Bold, Lucida Grande" font-weight="700"><tspan x="0" y="0">8</tspan></text>
    <text id="Personal_Info" data-name="Personal Info" transform="translate(124 595)" fill="#fff" font-size="9" font-family="LucidaGrande-Bold, Lucida Grande" font-weight="700"><tspan x="0" y="0">Personal Info</tspan></text>
    <text id="Academic_History" data-name="Academic 
History" transform="translate(438 595)" fill="#fff" font-size="9" font-family="LucidaGrande-Bold, Lucida Grande" font-weight="700"><tspan x="0" y="0">Academic </tspan><tspan x="0" y="11">History</tspan></text>
    <text id="Resume" transform="translate(541 594)" fill="#fff" font-size="9" font-family="LucidaGrande-Bold, Lucida Grande" font-weight="700"><tspan x="0" y="0">Resume</tspan></text>
    <text id="Employment_References" data-name="Employment 
&amp; References" transform="translate(627 594)" fill="#fff" font-size="9" font-family="LucidaGrande-Bold, Lucida Grande" font-weight="700"><tspan x="0" y="0">Employment </tspan><tspan x="0" y="11">&amp; References</tspan></text>
    <text id="Language_Proficiency" data-name="Language 
Proficiency" transform="translate(727 595)" fill="#fff" font-size="9" font-family="LucidaGrande-Bold, Lucida Grande" font-weight="700"><tspan x="0" y="0">Language </tspan><tspan x="0" y="11">Proficiency</tspan></text>
    <text id="Essays" transform="translate(833 595)" fill="#fff" font-size="9" font-family="LucidaGrande-Bold, Lucida Grande" font-weight="700"><tspan x="0" y="0">Essays</tspan></text>
    <text id="Program_Info" data-name="Program Info" transform="translate(337 595)" fill="#fff" font-size="9" font-family="LucidaGrande-Bold, Lucida Grande" font-weight="700"><tspan x="0" y="0">Program Info</tspan></text>
    <text id="Citizenship" transform="translate(245 595)" fill="#fff" font-size="9" font-family="LucidaGrande-Bold, Lucida Grande" font-weight="700"><tspan x="0" y="0">Citizenship</tspan></text>
    <text id="Declaration" transform="translate(919 595)" fill="#fff" font-size="9" font-family="LucidaGrande-Bold, Lucida Grande" font-weight="700"><tspan x="0" y="0">Declaration</tspan></text>
    <text id="Payment_Info" data-name="Payment Info" transform="translate(1014 595)" fill="#fff" font-size="9" font-family="LucidaGrande-Bold, Lucida Grande" font-weight="700"><tspan x="0" y="0">Payment Info</tspan></text>
    <text id="Submit" transform="translate(1121 595)" fill="#fff" font-size="9" font-family="LucidaGrande-Bold, Lucida Grande" font-weight="700"><tspan x="0" y="0">Submit</tspan></text>
  </g>
</svg>
